<svg xmlns="http://www.w3.org/2000/svg" id="Capa_2" viewBox="0 0 541.03 147.36"><defs><style>      .cls-1 {        fill: #fff;      }    </style></defs><g id="Capa_1-2" data-name="Capa_1"><path class="cls-1" d="M95.05,42.73h-31.29v19.18h31.29c18.27,0,33.14,14.86,33.14,33.14s-14.86,33.14-33.14,33.14-33.14-14.86-33.14-33.14V30.95C61.91,13.89,48.02,0,30.95,0S0,13.89,0,30.95s13.89,30.95,30.95,30.95h9.93v-19.18h-9.93c-6.49,0-11.77-5.28-11.77-11.77s5.28-11.77,11.77-11.77,11.77,5.28,11.77,11.77v64.09c0,28.85,23.47,52.32,52.32,52.32s52.32-23.47,52.32-52.32-23.47-52.32-52.32-52.32ZM532.22,18.71h.78l1.61,3.06h2.02l-2.06-3.51c.78-.19,1.53-.78,1.53-2.35,0-1.72-1.2-2.47-2.88-2.47h-2.73v8.33h1.72v-3.06ZM532.22,14.9h.97c.75,0,1.2.3,1.2,1.16s-.34,1.23-1.31,1.23h-.86v-2.39ZM533.04,25.69c4.59,0,7.99-3.18,7.99-7.92s-3.4-7.84-7.96-7.84-7.96,3.14-7.96,7.92,3.4,7.84,7.92,7.84ZM533.08,11.61c3.36,0,6.13,2.35,6.13,6.24s-2.65,6.2-6.16,6.2-6.09-2.47-6.09-6.24,2.69-6.2,6.13-6.2ZM436.76,78.31l28.73-35.78h-18.57l-21.35,26.96c-6.22,8.36-6.66,17.95-.4,28.33l22.69,30.52h19.03l-30.08-39.8c-2.02-2.8-2.22-6.79-.05-10.23ZM393.91,10.49v15.47c5.23,0,9.48,4.26,9.48,9.49v92.9h15.45V35.45c0-13.76-11.16-24.96-24.93-24.96ZM504.84,40.98c-26.83,0-37.13,18.25-37.13,44.77s9.05,44,36.19,44,37.13-18.25,37.13-44.78-9.05-43.99-36.19-43.99ZM504.84,116.95c-14.98,0-21.22-10.76-21.22-32.14s5.77-31.05,20.28-31.05,21.22,10.61,21.22,32.14-5.3,31.05-20.28,31.05ZM288.71,40.98c-20.75,0-37.6,14.04-37.6,44.15s13.42,44.46,38.69,44.46c13.57,0,22.31-3.59,28.39-8.27l-6.87-11.54c-3.59,3.28-10.92,7.02-19.66,7.02-16.38,0-24.34-7.96-25.27-26.83h53.67c.62-5.77.78-10.76.78-14.98,0-20.59-11.39-34.01-32.14-34.01ZM305.87,78.42h-39.16c.78-17.63,10.14-24.81,21.06-24.81,12.48,0,18.25,7.33,18.25,20.59,0,.62,0,2.96-.16,4.21ZM348.42,65c0-5.93,4.68-10.92,14.35-10.92,7.02,0,13.57,3.28,17.32,7.33l9.98-10.3c-5.46-5.93-14.98-9.98-26.83-9.98-19.19,0-30.11,11.7-30.11,24.65,0,28.86,42.43,22.15,42.43,39.47,0,6.4-4.83,11.7-15.44,11.7-9.98,0-18.25-4.84-23.09-9.83l-9.36,11.23c5.15,5.3,16.07,11.39,31.67,11.39,22,0,31.67-13.42,31.67-25.12,0-29.02-42.59-22.15-42.59-39.63ZM221.68,71.87v-.62c8.74-2.5,15.29-11.23,15.29-24.18,0-21.06-14.67-28.08-32.3-28.08h-35.1v109.36h34.01c29.17,0,38.85-14.82,38.85-31.67,0-15.6-9.52-23.4-20.75-24.81ZM185.02,32.4h17.16c12.48,0,19.34,5.3,19.34,16.54s-5.93,17.32-19.19,17.32h-17.32v-33.85ZM205.46,114.93h-20.44v-35.1h19.66c11.7,0,21.69,3.9,21.69,17.63,0,11.39-6.24,17.47-20.9,17.47Z"></path></g></svg>